<?xml version="1.0" encoding="UTF-8"?>
<!-- Generator: Adobe Illustrator 19.0.0, SVG Export Plug-In . SVG Version: 6.00 Build 0)  -->
<svg version="1.1" id="Layer_1" xmlns="http://www.w3.org/2000/svg" xmlns:xlink="http://www.w3.org/1999/xlink" x="0px" y="0px" viewBox="0 0 640 640" style="enable-background:new 0 0 640 640;" xml:space="preserve">
<style type="text/css">
	.st0{display:none;}
	.st1{display:inline;fill:#221751;}
	.st2{display:inline;fill:#FFFFFF;}
	.st3{display:inline;}
	.st4{stroke:#FFFFFF;stroke-miterlimit:10;}
	.st5{fill:#1F202F;}
	.st6{fill:none;stroke:#1F202F;stroke-width:2;stroke-linejoin:round;stroke-miterlimit:10;}
	.st7{fill:#A78BFA;}
	.st8{fill:none;stroke:#F2F2F2;stroke-width:2;stroke-linejoin:round;stroke-miterlimit:10;}
	.st9{display:inline;fill:none;stroke:#F2F2F2;stroke-width:2;stroke-linejoin:round;stroke-miterlimit:10;}
	.st10{fill:#1A1A1A;}
	.st11{fill:none;stroke:#1F202F;stroke-width:6;stroke-linejoin:round;stroke-miterlimit:10;}
	.st12{fill:none;stroke:#F2F2F2;stroke-width:6;stroke-linejoin:round;stroke-miterlimit:10;}
	.st13{fill:#F2F2F2;}
	.st14{fill:#FFFFFF;}
	.st15{fill:#D4145A;}
	.st16{fill:none;stroke:#F2F2F2;stroke-width:5;stroke-linejoin:round;stroke-miterlimit:10;}
	.st17{fill:#47496D;}
</style>
<g id="Layer_2" class="st0">
	<rect id="XMLID_63_" x="-1278.4" y="185.9" class="st1" width="591.3" height="323"/>
	<path id="XMLID_62_" class="st2" d="M-1085.9,227.6l35.9,175.7c0.1,0.4,0.2,0.7,0.4,1l8,12.6c0.2,0.3,0.4,0.6,0.7,0.7l44.1,25   c0.7,0.4,1.4,0.2,1.9-0.4l6.9-8.5c0.4-0.5,0.6-1.1,0.6-1.8l-0.8-42.7c0-0.6-0.2-1.1-0.4-1.6l-6.1-10.2c-0.4-0.6-1-1-1.6-1l-28,1.6   c-7.6,0.4-14.9-6-17.8-15.8l-40.4-136.2c-0.3-1-1.1-1.7-1.9-1.6l0,0C-1085.4,224.7-1086.2,226.1-1085.9,227.6z"/>
	<g id="XMLID_70_" class="st3">
		<polygon id="XMLID_67_" class="st4" points="-1027.6,378.5 -1023.3,427.9 -1016.9,431.6 -1020.2,378.5   "/>
		<polygon id="XMLID_68_" class="st4" points="-1009.7,435.3 -1016.9,431.2 -1020.2,378 -1011,377.4   "/>
		<polygon id="XMLID_69_" class="st4" points="-1002.4,439.4 -1009.7,435.3 -1011,377.4 -1000,376.8   "/>
	</g>
	<g id="XMLID_55_" class="st3">
		<g id="XMLID_59_">
			
				<text id="XMLID_103_" transform="matrix(0.9891 -0.1471 0.1471 0.9891 -1042.8479 385.7875)" style="font-family:'IBMPlexMono-Bold'; font-size:96px;">$</text>
		</g>
		<g id="XMLID_56_" class="st0">
			
				<text id="XMLID_113_" transform="matrix(1 0 0 1 -1190.2607 424.8224)" class="st3" style="font-family:'IBMPlexMono-Bold'; font-size:96px;">  p</text>
		</g>
	</g>
	<g id="XMLID_48_" class="st3">
		<g id="XMLID_52_">
			
				<text id="XMLID_116_" transform="matrix(0.9891 -0.1471 0.1471 0.9891 -1035.4939 385.788)" class="st7" style="font-family:'IBMPlexMono-Bold'; font-size:96px;">$</text>
		</g>
		<g id="XMLID_49_" class="st0">
			
				<text id="XMLID_123_" transform="matrix(1 0 0 1 -1182.9067 424.8229)" style="display:inline;fill:#A78BFA; font-family:'IBMPlexMono-Bold'; font-size:96px;">  p</text>
		</g>
	</g>
</g>
<g id="Layer_6">
	<g id="XMLID_128_" class="st0">
		<g id="XMLID_269_" class="st3">
			<g id="XMLID_244_">
				<path id="XMLID_253_" class="st5" d="M36.7,209.3c-10.8,9.4-12.9,25.2-4.8,37c26.3,38.3,60.8,93.2,74.6,182.4      c16.7,108.5,326.7-14.3,340.6-25.4s114-270.2,114-270.2l-7.4-9.2l-52.9-23.2c0,0-60.2,191.6-81.4,198.9      c-23.1,7.9-61.4,23.1-152.3-6C158,258.8,45.2,201.9,37.1,209C37,209.1,36.8,209.2,36.7,209.3z"/>
				<path id="XMLID_252_" class="st6" d="M36.7,209.3c-10.8,9.4-12.9,25.2-4.8,37c26.3,38.3,60.8,93.2,74.6,182.4      c16.7,108.5,326.7-14.3,340.6-25.4s114-270.2,114-270.2l-7.4-9.2l-52.9-23.2c0,0-60.2,191.6-81.4,198.9      c-23.1,7.9-61.4,23.1-152.3-6C158,258.8,45.2,201.9,37.1,209C37,209.1,36.8,209.2,36.7,209.3z"/>
			</g>
			<g id="XMLID_241_">
				<path id="XMLID_243_" class="st7" d="M41.7,204.3c-10.8,9.4-12.9,25.2-4.8,37c26.3,38.3,60.8,93.2,74.6,182.4      c16.7,108.5,326.7-14.3,340.6-25.4s114-270.2,114-270.2l-7.4-9.2l-52.9-23.2c0,0-60.2,191.6-81.4,198.9      c-23.1,7.9-61.4,23.1-152.3-6C163,253.8,50.2,196.9,42.1,204C42,204.1,41.8,204.2,41.7,204.3z"/>
				<path id="XMLID_242_" class="st8" d="M41.7,204.3c-10.8,9.4-12.9,25.2-4.8,37c26.3,38.3,60.8,93.2,74.6,182.4      c16.7,108.5,326.7-14.3,340.6-25.4s114-270.2,114-270.2l-7.4-9.2l-52.9-23.2c0,0-60.2,191.6-81.4,198.9      c-23.1,7.9-61.4,23.1-152.3-6C163,253.8,50.2,196.9,42.1,204C42,204.1,41.8,204.2,41.7,204.3z"/>
			</g>
		</g>
		<path id="XMLID_268_" class="st9" d="M558.7,118.9c0,0-64.7,151.4-98.8,181.3S293.8,295,293.8,295"/>
	</g>
	<ellipse id="XMLID_104_" class="st10" cx="331.7" cy="529.4" rx="273.7" ry="50.2"/>
	<g id="XMLID_16_">
		<g id="XMLID_44_">
			<g id="XMLID_149_">
				<path id="XMLID_152_" class="st5" d="M37.3,209.4c-11.8,10.3-14.1,27.7-5.3,40.7c29,42.2,66.9,102.5,82,200.5      c18.3,119.3,359.1-15.7,374.4-28c15.3-12.2,125.3-297,125.3-297l-8.1-10.1L547.5,90c0,0-66.1,210.6-89.4,218.6      c-25.4,8.7-67.4,25.3-167.4-6.6c-120-38.3-244-100.8-252.9-93C37.7,209.2,37.5,209.3,37.3,209.4z"/>
				<path id="XMLID_151_" class="st11" d="M37.3,209.4c-11.8,10.3-14.1,27.7-5.3,40.7c29,42.2,66.9,102.5,82,200.5      c18.3,119.3,359.1-15.7,374.4-28c15.3-12.2,125.3-297,125.3-297l-8.1-10.1L547.5,90c0,0-66.1,210.6-89.4,218.6      c-25.4,8.7-67.4,25.3-167.4-6.6c-120-38.3-244-100.8-252.9-93C37.7,209.2,37.5,209.3,37.3,209.4z"/>
			</g>
			<g id="XMLID_146_">
				<path id="XMLID_148_" class="st7" d="M37.3,204.4c-11.8,10.3-14.1,27.7-5.3,40.7c29,42.2,66.9,102.5,82,200.5      c18.3,119.3,359.1-15.7,374.4-28c15.3-12.2,125.3-297,125.3-297l-8.1-10.1L547.5,85c0,0-66.1,210.6-89.4,218.6      c-25.4,8.7-67.4,25.3-167.4-6.6c-120-38.3-244-100.8-252.9-93C37.7,204.2,37.5,204.3,37.3,204.4z"/>
				<path id="XMLID_147_" class="st12" d="M37.3,204.4c-11.8,10.3-14.1,27.7-5.3,40.7c29,42.2,66.9,102.5,82,200.5      c18.3,119.3,359.1-15.7,374.4-28c15.3-12.2,125.3-297,125.3-297l-8.1-10.1L547.5,85c0,0-66.1,210.6-89.4,218.6      c-25.4,8.7-67.4,25.3-167.4-6.6c-120-38.3-244-100.8-252.9-93C37.7,204.2,37.5,204.3,37.3,204.4z"/>
			</g>
		</g>
		<path id="XMLID_42_" class="st13" d="M283.2,479.1l77.2-20C335.8,466.7,309.3,473.8,283.2,479.1z"/>
		<path id="XMLID_40_" class="st13" d="M368.6,456.6l58.2-20.2C410.4,442.7,390.4,449.7,368.6,456.6z"/>
		<path id="XMLID_38_" class="st14" d="M275.5,480.7C275.5,480.7,275.4,480.7,275.5,480.7c-17.2,3.3-34,5.8-50,7    c-23,1.8-34.4,2.3-51.5-2.1c-3.5-0.9-6.8-1.6-10-3.6l0,0l-41.4-240.1c20.1,8.2,31.6,12.9,57.8,23.4c13.2,5.3,26.9,10.8,41,16.1    L275.5,480.7z"/>
		<path id="XMLID_34_" class="st15" d="M275.5,480.7L275.5,480.7L275.5,480.7C275.4,480.7,275.5,480.7,275.5,480.7z"/>
		<path id="XMLID_33_" class="st14" d="M360.4,459.2l-77.2,20l-0.2,0.1l-53.2-194.6c18.8,7,38,13.6,57.2,19.8    c6.1,1.9,11.9,3.7,17.5,5.2l2.9,1L360.4,459.2z"/>
		<path id="XMLID_32_" class="st14" d="M426.9,436.4L426.9,436.4l-58.3,20.2l-0.4,0.1l-53.8-144.3l2,0.3h0.1    c20.7,5.1,38.2,8.8,53.2,10.3l1,0.2L426.9,436.4z"/>
		<path id="XMLID_27_" class="st16" d="M314.4,304c0,0,145.1,38.6,182.6,5.8s108.6-199.3,108.6-199.3"/>
	</g>
	<g id="XMLID_186_">
		<path id="XMLID_267_" class="st7" d="M143.3,490.7L143.3,490.7v-0.5C143.3,490.4,143.3,490.5,143.3,490.7z"/>
		<path id="XMLID_266_" class="st7" d="M162.1,375.4c-0.8,2.7-1.1,3.1-1.3,4.4l0.7-4.5L162.1,375.4z"/>
		<path id="XMLID_265_" class="st7" d="M606.7,445.9l-0.7,4.6c0.2-1.4,0.1-1.8,0.2-4.6H606.7z"/>
		<path id="XMLID_264_" class="st7" d="M588.5,560.8l-0.1,0.5l0,0C588.5,561.1,588.5,561,588.5,560.8z"/>
		<path id="XMLID_263_" class="st17" d="M607.7,440.1l-14.5,91.3c0,0.1,0,0.3-0.1,0.4c-5.2,26.7-107.9,32.6-230.2,13.2    S144.6,488.1,148,461.2c0-0.1,0-0.3,0-0.4l14.5-91.3c0.2-1.1,0.4-1.4,1.1-3.7c11.9-23.7,111.5-28.9,229.2-10.2    s210.8,54.4,214.8,80.6C607.7,438.6,607.8,439,607.7,440.1z"/>
		
			<ellipse id="XMLID_261_" transform="matrix(-0.1566 0.9877 -0.9877 -0.1566 831.6541 69.8198)" class="st14" cx="386" cy="390" rx="26.9" ry="162.8"/>
		
			<ellipse id="XMLID_260_" transform="matrix(-0.1566 0.9877 -0.9877 -0.1566 829.0827 68.642)" class="st17" cx="385.2" cy="388.3" rx="19.8" ry="120"/>
	</g>
</g>
</svg>